<?xml version="1.0" encoding="utf-8"?>
<!-- Generator: Adobe Illustrator 16.0.0, SVG Export Plug-In . SVG Version: 6.00 Build 0)  -->
<!DOCTYPE svg PUBLIC "-//W3C//DTD SVG 1.1//EN" "http://www.w3.org/Graphics/SVG/1.1/DTD/svg11.dtd">
<svg version="1.1" id="Layer_1" xmlns="http://www.w3.org/2000/svg" xmlns:xlink="http://www.w3.org/1999/xlink" x="0px" y="0px"
	 width="580px" height="741px" viewBox="0 0 580 741" enable-background="new 0 0 580 741" xml:space="preserve">
<g>
	<defs>
		<rect id="SVGID_1_" width="580" height="741"/>
	</defs>
	<clipPath id="SVGID_2_">
		<use xlink:href="#SVGID_1_"  overflow="visible"/>
	</clipPath>
	<path clip-path="url(#SVGID_2_)" fill="#1A181D" d="M510.575,283.7c0.849-9.969-0.938-19.937-0.333-29.912
		c-0.136-6.914-0.877-13.811-1.244-20.721c-0.346-9.194-2.387-18.196-2.82-27.385c-2.016-15.322-4.625-30.614-8.644-45.558
		c-4.218-16.254-11.771-31.455-20.805-45.542c-14.072-21.774-32.948-40.379-54.864-54.224
		c-23.816-15.195-50.682-25.256-78.271-31.022c-19.231-3.795-38.939-6.004-58.542-4.372c-7.94,0.636-15.932,0.823-23.815,1.973
		c-25.766,3.272-51.92,7.827-75.49,19.309c-9.05,4.757-17.524,10.533-25.665,16.695c-24.765,19.07-46.649,42.126-63.201,68.701
		c-16.909,27.008-27.217,58.543-26.673,90.591c0.503,14.96-1.499,29.892-0.929,44.859c0.082,24.24,0.881,48.476,2.328,72.679
		c0.168,13.759,1.94,27.433,3.009,41.131c1.734,24.382,7.205,48.248,11.94,72.161c9.726,44.923,21.272,90.187,43.399,130.821
		c12.189,22.783,27.42,43.751,43.018,64.285c13.258,17.055,26.458,34.72,44.074,47.565c12.69,9.475,27.973,14.881,43.52,17.338
		c17.932,2.681,36.307,5.388,54.318,1.734c32.036-7.081,59.993-27.712,79.684-53.541c26.689-42.497,53.815-84.914,75.722-130.165
		c9.532-19.344,17.558-39.621,21.467-60.9c9.428-49.304,13.65-99.424,17.453-149.417C509.853,308.424,511.435,296.09,510.575,283.7
		 M492.874,173.57c2.87,14.096,5.926,28.322,6.117,42.752c-2.685-15.1-5.94-30.172-11.065-44.678
		c-3.369-11.515-8.279-22.517-11.313-34.132c-1.997-6.867-4.961-13.37-7.677-19.957C481.055,134.08,488.712,153.564,492.874,173.57
		 M489.549,392.918c-4.185,1.396-8.38,2.771-12.646,3.919c1.62-18.787,2.619-37.62,2.174-56.466c4.15-5.154,8.73-9.983,12.31-15.595
		C487.576,347.217,484.698,370.4,489.549,392.918 M472.189,482.658c-5.099-1.221-10.313-1.851-15.507-2.524
		c10.649-25.329,16.475-52.382,19.753-79.594c3.884-0.77,7.648-2.005,11.485-2.981c-6.651,19.877-12.55,40.121-15.198,60.973
		C471.917,466.535,471.327,474.624,472.189,482.658 M363.873,200.991c0.361-13.927-0.249-27.866,0.178-41.788
		c14.795,13.864,34.682,22.135,54.971,22.485c0.446,0.246,1.352,0.758,1.799,1.014c-0.734,22.917-2.173,45.86-5.256,68.615
		c-16.01-0.319-31.875-5.863-44.684-15.462c-2.386-2.011-5.088-3.824-6.81-6.464C363.455,219.94,364.192,210.452,363.873,200.991
		 M363.977,90.342c4.431,3.086,8.378,6.833,13.04,9.594c12.586,7.75,26.946,12.238,41.522,14.363
		c1.172,13.758,2.048,27.547,2.297,41.356c-0.608,7.484,0.824,14.984-0.128,22.446c-19.216-0.146-38.767-7.03-52.872-20.311
		c-1.314-1.345-3.289-2.336-3.813-4.23C363.692,132.502,365.089,111.392,363.977,90.342 M424.587,168.92
		c0.614-8.708-0.734-17.404-0.23-26.104c-0.159-8.072-1.054-16.104-1.422-24.172c14.447,14.262,32.366,25.897,52.736,29.086
		c2.381,12.066,2.651,24.408,3.138,36.669c0.358,10.196,0.387,20.415-0.281,30.604c-19.777-6.978-39.348-16.947-53.104-33.207
		C424.037,177.755,424.786,173.173,424.587,168.92 M424.61,186.581c14.581,14.771,32.964,25.426,52.722,31.623
		c1.245,6.035-0.075,12.122-0.894,18.12c-1.981,13.762-5.568,27.257-10.005,40.423c-1.5-1.475-2.814-3.139-3.757-5.016
		c-0.533,2.549-1.494,4.974-2.489,7.378c-13.965-7.271-26.861-16.367-39.428-25.794c-1.969-1.4-0.92-4.15-0.989-6.163
		C422.648,227.078,423.43,206.794,424.61,186.581 M360.345,183.677c-0.09,15.166,0.021,30.341-0.224,45.507
		c-14.445,3.566-29.456,5.297-44.323,4.084c-11.539-0.908-22.989-4.589-32.394-11.44c-2.044-23.093-0.998-46.296-2.207-69.423
		c5.112,1.088,9.775,3.695,14.976,4.458c21.039,3.937,42.633,2.711,63.805,0.642C360.665,166.213,360.197,174.955,360.345,183.677
		 M389.359,387.709c1.341-16.066,5.348-31.839,10.391-47.13c1.498-5.074,3.177-10.105,4.394-15.27
		c3.218,3.08,6.404,6.183,9.591,9.287c3.999,4.03,8.875,7.019,13.048,10.85c-9.611,15.07-19.876,29.766-31.12,43.668
		C393.565,388.604,391.462,388.141,389.359,387.709 M387.948,397.992c0.644-2.546-0.247-8.065,4.016-6.501
		C393.629,394.278,389.462,396.082,387.948,397.992 M391.196,356.78c-2.354,9.553-4.203,19.226-5.308,29.002
		c-2.038-0.303-4.025-0.83-5.882-1.708c-12.386-5.614-23.797-13.278-34.034-22.201c-0.436-1.69,0.367-3.366,0.586-5.012
		c2.369-10.965,4.012-22.068,5.968-33.105c0.964-5.159,1.312-10.463,2.98-15.46c12.55,10.652,29.313,14.801,45.472,15.209
		C398.163,334.721,394.169,345.609,391.196,356.78 M312.881,471.066c2.33-5.173,4.636-10.367,6.705-15.646
		c2.615,2.646,5.499,5.01,8.533,7.175c-3.706,3.724-7.591,7.261-11.463,10.829c-1.135,1.157-2.664,1.69-4.178,2.135
		C312.542,474.056,312.203,472.469,312.881,471.066 M171.762,341.067c-0.427-1.25-0.701-2.543-0.986-3.825
		c8.534-1.955,16.359-6.089,23.621-10.868c4.516-3.006,8.238-7.006,12.608-10.212c5.471,15.883,12.212,31.293,18.673,46.8
		c1.766,2.802-1.201,4.91-3.036,6.644c-9.436,8.189-21.532,13.89-34.214,13.677C182.621,369.309,176.976,355.269,171.762,341.067
		 M184.477,383.396c-1.986-0.351-3.799-1.231-4.992-2.894c-7.375-8.808-14.509-17.786-21.611-26.799
		c1.752-5.565,4.957-10.677,9.456-14.42C172.752,354.099,178.625,368.741,184.477,383.396 M261.512,464.37
		c1.852-3.278,3.453-7.477,7.203-8.932c6.75,8.85,11.656,18.971,15.49,29.385c-3.191,0.909-6.481,1.33-9.774,1.553
		c0.754-3.039,1.352-6.111,1.839-9.188C271.269,473.017,266.41,468.659,261.512,464.37 M273.12,455.361
		c6.59,0.603,13.393,0.11,19.224-3.349c-0.032,8.679,0.742,17.37,0.236,26.037c-1.282,1.906-3.903,2.447-5.781,3.698
		C283.454,472.382,278.681,463.586,273.12,455.361 M271.771,450.898c-2.138-0.814-2.833-3.26-3.977-5.023
		c-4.202-8.173-7.997-16.539-12.006-24.802c5.063,0.86,10.153,2.27,15.337,1.644c6.852-0.749,13.245-3.54,19.217-6.865
		c0.729,10.634,1.284,21.292,1.695,31.948C286.319,452.11,278.511,453.232,271.771,450.898 M288.374,316.324
		c-0.784-4.743-0.897-9.521-0.835-14.321c18.572,12.814,42.921,12.548,63.763,6.069c-2.648,17.588-5.42,35.174-9.185,52.562
		c-15.645,2.622-32.016,3.805-47.493-0.409c-1.245-0.644-3.438-0.452-3.75-2.14C289.308,344.211,289.434,330.233,288.374,316.324
		 M289.626,400.022c0.277,3.939,0.621,7.886,0.414,11.847c-10.477,7.136-25.456,10.805-36.701,3.471
		c-7.474-15.328-14.527-30.949-21.146-46.677c4.824,0.578,9.555,1.902,14.439,1.892c11.115,0.01,22.215-1.666,32.858-4.876
		c2.58-0.814,5.218-1.422,7.888-1.889C288.534,375.84,288.668,387.959,289.626,400.022 M246.71,366.977
		c-5.593-0.218-11.366-0.798-16.478-3.198c-1-1.41-1.638-3.021-2.317-4.585c-6.178-14.919-12.594-29.767-17.806-45.061
		c11.01,3.028,22.752,4.175,33.987,1.719c13.844-2.027,27.042-7.075,39.668-12.933c1.127,18.822,2.398,37.645,3.459,56.46
		C274.294,364.167,260.518,367.026,246.71,366.977 M228.101,369.127c7.448,15.76,14.34,31.777,21.66,47.602
		c-7.096,5.286-14.23,10.674-22.277,14.448c-1.462-0.254-2.347-1.605-3.42-2.481c-9.012-9.37-18.212-18.572-26.925-28.238
		c-3.533-3.675-4.963-8.684-6.861-13.285C204.602,386.062,218.145,379.413,228.101,369.127 M231.32,433.288
		c7.148-3.702,13.568-8.557,20.064-13.263c3.116,5.986,5.646,12.254,8.752,18.252c2.112,4.499,4.878,8.733,6.327,13.521
		c-3.082,2.865-5.575,6.264-7.851,9.791c-9.217-8.484-18.413-16.981-27.372-25.727C230.077,435.302,230.081,433.725,231.32,433.288
		 M270.703,494.191c0.832-1.391,1.435-3.085,2.91-3.935c3.098-0.661,6.268-0.897,9.405-1.296
		c-8.795,15.225-18.267,30.065-27.673,44.912c-2.659-3.447-4.917-7.176-7.322-10.784
		C256.818,514.534,264.969,505.119,270.703,494.191 M283.508,495.068c0.833-1.379,1.862-2.628,3.141-3.607
		c0.107,1.746,0.273,3.543-0.106,5.288c-3.512,15.574-7.137,31.122-11.031,46.601c-5.302-3.401-10.79-6.78-17.206-7.427
		C266.703,522.301,275.445,508.888,283.508,495.068 M282.844,528.499c2.717-11.187,5.156-22.421,7.863-33.607
		c3.527-0.184,7.99,0.927,8.78,4.953c3.016,11.517,5.197,23.243,8.073,34.813c0.612,2.704,0.909,5.463,1.293,8.215
		c-5.796-1.251-11.697-2.44-17.658-1.895c-4.138,0.279-7.999,1.874-11.918,3.109C280,538.791,281.696,533.703,282.844,528.499
		 M289.548,491.11c-0.46-2.56-1.508-5.676,0.954-7.584c2.388-2.035,4.833,1.03,7.169,1.665c2.646,1.477,5.512-0.184,8.03-1.092
		c1.108,1.722,2.09,3.519,2.933,5.392c-2.965,1.148-5.798,2.63-8.336,4.565C297.091,491.946,293.334,491.175,289.548,491.11
		 M307.635,474.861c-1.221,3.313-3.619,6.154-6.859,7.652c-1.444-0.498-2.898-0.962-4.361-1.404
		c-0.203-10.03,0.034-20.068-0.51-30.087c2.729,1.889,5.388,4.035,8.61,5.063c3.475,1.154,7.19,0.838,10.791,0.925
		C312.718,462.941,309.904,468.787,307.635,474.861 M316.748,452.746c-4.745,0.916-10.059,1.418-14.326-1.37
		c-3.693-2.44-7.574-6.038-7.218-10.88c-0.048-8.376-0.688-16.724-1.011-25.093c10.06,5.947,22.254,5.609,33.522,5.135
		C324.616,431.453,321.091,442.266,316.748,452.746 M327.049,417.022c-8.982,0.375-18.24,0.603-26.868-2.266
		c-3.082-1.226-6.995-3.331-6.52-7.233c-0.633-14.919-2.021-29.787-2.445-44.709c16.154,5.26,33.386,4.097,49.964,1.886
		c-2.579,16.194-6.921,32.067-11.065,47.925C329.442,414.27,329.628,417.333,327.049,417.022 M340.94,384.363
		c1.467-6.042,2.236-12.279,4.252-18.181c12.287,9.688,25.352,18.663,40.205,23.922c-0.771,4.264-0.179,8.777-1.277,12.921
		c-5.777,8.647-13.546,15.732-20.15,23.731c-10.701-2.376-21.414-5.258-31.472-9.694
		C335.683,406.263,338.272,395.305,340.94,384.363 M351.953,303.827c-15.911,5.705-33.869,7.051-50.057,1.638
		c-5.123-2.068-10.595-4.234-14.512-8.204c-1.561-18.881-2.146-37.827-3.499-56.722c-0.434-4.8-0.219-9.611-0.346-14.42
		c16.156,10.982,36.614,12.533,55.52,10.364c7.091-0.314,13.925-2.297,20.945-3.157c-0.053,8.361-0.382,16.719-0.876,25.066
		c-0.35,7.399-2.502,14.546-3.43,21.874C354.342,288.098,353.409,296.011,351.953,303.827 M283.522,298.845
		c-10.784,5.701-22.44,9.597-34.261,12.501c-13.22,2.448-27.365,3.766-40.138-1.524c-5.814-23.4-8.835-47.408-11.794-71.311
		c6.183,1.27,12.172,3.589,18.55,3.83c22.346,2.086,44.071-5.864,63.93-15.298C280.82,250.989,282.314,274.913,283.522,298.845
		 M203.801,303.335c0.434,2.837,1.734,5.594,1.642,8.478c-9.564,10.701-22.357,18.82-36.391,22.105
		c-6.378-19.834-13.558-39.46-18.272-59.793c10.012-2.76,19.238-8.024,26.819-15.108c6.165-5.367,11.023-11.968,16.352-18.117
		C196.652,261.799,199.552,282.695,203.801,303.335 M165.82,335.206c-4.2,4.418-7.826,9.349-10.727,14.705
		c-9.164-12.27-17.877-24.88-25.754-38.009c9.101-8.751,14.212-20.574,18.678-32.155c0.882,2.113,1.592,4.303,2.193,6.512
		C154.82,302.761,160.401,318.967,165.82,335.206 M158.623,386.674c28.453,33.912,60.158,65.024,93.654,93.933
		c1.711,0.844,1.724,2.662,0.592,4.028c-8.189,14.247-17.951,28.225-31.501,37.861c-9.063,6.709-21.146,7.69-31.882,5.295
		c-4.778-1.045-10.077-2.439-13.197-6.519c-26.406-36.255-39.715-80.197-46.983-123.975c-2.879-19.453-5.266-39.127-4.975-58.816
		C133.996,355.723,146.052,371.459,158.623,386.674 M245.19,525.54c2.638,3.968,6.249,7.803,7.443,12.419
		c-9.422,14.926-19.048,29.777-29.22,44.224c-2.912-12.273-9.934-23.023-18.527-32.068C220.23,545.65,233.444,536.091,245.19,525.54
		 M253.068,543.906c1.34-1.7,2.371-4.395,4.989-4.163c6.425-0.202,11.739,4.036,16.36,7.98c-4.851,19.27-9.598,38.609-15.764,57.505
		c-5.659-7.061-12.443-13.802-21.239-16.703c-4.084-1.367-8.417-1.703-12.696-1.723
		C234.402,572.653,243.729,558.275,253.068,543.906 M276.661,553.36c0.481-4.145,4.519-6.226,8.041-7.467
		c7.865-2.56,16.405-1.317,24.197,0.923c2.124,0.597,2.018,3.261,2.423,5.02c3.965,19.038,8.573,37.967,11.874,57.138
		c-20.124-4.926-41.62-6.01-61.586,0.212C266.695,590.595,272.161,572.11,276.661,553.36 M303.986,503.278
		c-0.473-2.107-1.138-4.278-0.699-6.436c1.655-2.582,4.677-3.403,7.578-3.368c6.877,9.746,13.849,19.43,20.577,29.273
		c-8.711,3.091-15.047,10.652-18.394,19.06C309.576,529.075,307.274,516.056,303.986,503.278 M316.109,494.874
		c-3.032-3.919-5.134-8.43-7.146-12.914c-1.142-1.709,0.972-4.542,2.953-3.606c2.099,3.972,3.674,8.198,5.965,12.079
		c4.363,7.952,10.268,14.896,16.394,21.528c-0.323,2.238-0.624,4.475-0.924,6.722C327.16,511.085,321.954,502.737,316.109,494.874
		 M331.105,459.958c-3.735-2.251-8.19-4.552-9.487-9.063c3.179-10.071,7.009-19.967,9.904-30.151
		c8.954,3.607,18.264,6.11,27.554,8.658c0.238,0.26,0.727,0.8,0.966,1.07C350.914,440.792,340.987,450.37,331.105,459.958
		 M337.207,480.098c29.49-26.656,56.287-56.306,80.115-88.124c15.172-20.562,28.706-42.359,39.9-65.331
		c2.421,25.735,1.451,51.7-1.491,77.357c-4.354,33.48-12.914,67.069-30.277,96.324c-4.319,8.693-10.729,16.8-19.599,21.125
		c-9.81,3.65-20.753,1.28-29.998-2.892c-15.837-7.409-27.52-21.053-37.387-35.084C337.852,482.457,336.853,481.39,337.207,480.098
		 M428.823,342.033c-8.745-5.749-16.269-13.146-23.43-20.733c5.698-21.422,10.429-43.142,13.166-65.135
		c12.913,9.491,25.97,19.007,40.388,26.137C451.595,303.395,440.393,322.983,428.823,342.033 M414.907,254.823
		c-2.532,21.925-7.3,43.571-12.792,64.945c-15.811-0.013-32.223-3.998-44.64-14.163c-2.295-1.323-1.346-4.088-1.101-6.167
		c1.532-9.321,2.696-18.694,4.462-27.975c2.722-11.948,2.296-24.291,2.952-36.452C378.019,247.027,396.206,254.465,414.907,254.823
		 M360.353,154.072c-20.541,1.63-41.297,3.01-61.764-0.14c-4.92-1.013-9.891-2.287-14.351-4.665c-1.3-0.794-3.105-1.565-2.91-3.409
		c-0.991-18.599-2.191-37.185-3.709-55.749c27.436,4.62,55.349,1.478,82.68-2.308C361.458,109.862,360.161,131.979,360.353,154.072
		 M277.811,152.877c0.599,14.27,0.11,28.57,0.699,42.842c0.6,9.056,0.287,18.129,0.865,27.186
		c-13.913,7.367-28.91,12.878-44.515,15.277c-6.176,1.608-12.546,0.836-18.822,0.643c-5.758-0.538-11.532-1.625-16.887-3.865
		c-0.977-0.596-2.689-0.955-2.748-2.329c-2.199-22.432-4.814-44.835-5.74-67.365c-0.302-4.798-0.913-9.608-0.334-14.409
		c8.285,7.246,18.415,12.439,29.347,14.148C239.803,168.674,260.041,161.916,277.811,152.877 M277.248,148.791
		c-16.917,9.907-36.957,15.528-56.595,12.884c-11.651-1.583-22.129-7.678-30.636-15.605c-0.943-16.42-0.712-32.918,0.275-49.325
		c5.401,1.124,10.723,2.705,16.245,3.17c22.777,1.759,45.292-3.444,67.223-8.994c1.371,17.692,2.445,35.393,3.618,53.098
		C277.364,145.597,277.851,147.273,277.248,148.791 M192.989,232.696c0.659,3.385-2.332,5.792-4.014,8.32
		c-9.975,13.099-22.734,25.802-39.332,29.503c-7.006-27.024-12.961-54.462-15.458-82.299c5.657-0.481,11.246-1.961,16.306-4.596
		c14.08-7.169,25.722-18.286,36.122-30.003C187.901,180.04,189.947,206.418,192.989,232.696 M146.096,271.861
		c-2.978,13.388-9.082,26.513-18.438,36.693c-4.777-7.219-8.365-15.125-12.439-22.733c-6.268,8.737-8.083,19.587-9.965,29.924
		c-2.073-2.771-3.446-5.964-4.945-9.06c-6.305-13.202-11.572-26.882-16.041-40.803c9.637-7.509,16.763-17.582,23.33-27.761
		c8.158-12.426,14.925-25.695,21.651-38.916c0.595-0.989,1.374-1.847,2.132-2.713C134.28,221.953,139.985,247.004,146.096,271.861
		 M118.911,446.479c4.821,17.349,10.848,34.429,18.905,50.555c0.658,1.411,1.25,2.838,1.833,4.287
		c-8.422,2.476-17.212,3.411-25.967,3.562c-0.162-25.58-4.168-52.245-18.536-73.987c6.279,3.347,11.816,7.945,18.271,10.96
		C115.462,443.074,118.577,443.657,118.911,446.479 M141.729,505.018c2.166,2.191,3.222,5.251,4.97,7.79
		c8.176,12.833,18.423,24.82,31.653,32.648c-6.018,6.394-13.12,11.592-20.377,16.459c-3.299,2.086-6.494,4.573-10.399,5.366
		c-4.247-22.404-14.844-44.468-33.261-58.571C123.569,508.427,132.691,506.852,141.729,505.018 M181.652,547.46
		c5.844,2.296,12.018,3.754,18.32,3.681c2.734,1.47,4.59,4.135,6.619,6.422c6.069,7.099,10.662,15.521,12.951,24.595
		c0.374,2.114,1.204,4.604-0.334,6.483c-8.861,12.639-17.986,25.097-27.356,37.383c-2.2-4.185-3.598-8.721-5.905-12.843
		c-8.49-16.648-21.966-30.083-36.286-41.796C161.083,564.517,172.372,557.15,181.652,547.46 M221.355,591.539
		c1.888-1.583,4.819-0.965,7.144-1.144c12.401,0.441,22.092,9.743,28.901,19.295c-6.782,23.347-14.651,46.414-24.13,68.819
		c-10.916-17.963-23.702-35.214-40.667-47.906C202.779,618.021,212.082,604.768,221.355,591.539 M240.172,671.163
		c7.653-18.918,13.803-38.386,20.123-57.776c16.907-5.486,35.235-5.919,52.657-2.795c3.764,0.87,7.981,0.96,11.325,2.962
		c4.847,22.463,9.328,45.071,12.661,67.813c-13.307-2.42-26.697-4.637-40.253-4.867c-16-0.529-32.157-0.431-47.967,2.356
		c-4.019,0.404-8.065,0.732-11.944,1.909C237.271,677.357,238.885,674.305,240.172,671.163 M317.719,564.425
		c-0.862-5.741-3.3-11.31-3.252-17.123c3.144-9.132,9.048-19.333,19.398-21.167c12.437,17.947,24.549,36.171,35.93,54.818
		c-16.383,4.271-33.776,11.852-42.377,27.35C323.573,593.821,321.161,579,317.719,564.425 M337.701,525.622
		c-2.589-2.901-0.616-6.839,0.012-10.101c13.854,12.968,29.6,25.4,48.746,28.926c-6.969,9.456-12.669,19.907-15.5,31.378
		C360.084,558.951,349.356,541.969,337.701,525.622 M378.47,564.59c3.255-7.155,7.628-13.746,12.447-19.926
		c7.753,0.348,14.797-3.094,21.351-6.789c9.188,3.822,18.04,8.683,25.553,15.287c-14.348,12.027-25.592,27.572-32.816,44.83
		c-3.284,7.377-5.493,15.156-7.794,22.886c-6.999-12.549-13.884-25.182-21.551-37.333C373.438,577.278,375.94,570.405,378.47,564.59
		 M415.823,535.188c17.165-13.266,30.392-31.281,38.86-51.192c5.225-0.011,10.461,0.628,15.515,1.984
		c-9.058,10.369-17.636,21.478-22.819,34.354c-4.102,9.296-6.481,19.291-7.598,29.367
		C432.409,543.88,424.18,539.408,415.823,535.188 M478.725,334.672c-0.217-5.001,0.468-10.053-0.9-14.956
		c-0.922-12.672-3.331-25.332-8.281-37.082c-1.099-2.395,0.188-4.886,0.927-7.174c4.264-11.81,7.019-24.08,9.296-36.394
		c3.471,23.305,5.845,47.533,16.828,68.788C492.208,317.687,486.438,327.107,478.725,334.672 M441.731,84.982
		c4.799,4.78,10.128,9.239,13.55,15.182c8.175,13.627,15.206,28.103,19.289,43.506c-17.38-2.499-32.701-12.556-45.429-24.21
		c-2.249-2.12-4.658-4.162-6.43-6.722c-1.391-11.119-2.764-22.305-5.689-33.144c-1.329-5.479-3.479-10.714-4.679-16.223
		C422.909,69.449,432.63,76.908,441.731,84.982 M405.241,59.264c1.765,0.653,2.289,2.547,2.968,4.111
		c5.471,15.188,9.374,31.044,10.124,47.222c-18.941-2.767-37.831-10.003-51.833-23.38c-1.111-1.281-2.861-2.376-3.029-4.194
		c-1.689-14.738-4.715-29.341-9.415-43.434C371.867,43.921,389.062,50.687,405.241,59.264 M309.632,32.39
		c13.4,0.881,26.662,3.128,39.81,5.813c5.77,14.584,9.029,30.207,9.954,45.856c-20.604,3.145-41.447,5.357-62.3,4.494
		c-6.611-0.436-13.275-0.824-19.713-2.44l-0.568-0.733c-1.106-13.112-1.927-26.266-3.406-39.352
		c-0.742-4.118-1.122-8.282-1.327-12.458C284.569,32.362,297.101,32.133,309.632,32.39 M268.324,33.933
		c0.98,6.682,1.381,13.435,1.956,20.155c1.706,10.889,2.23,21.912,3.256,32.868c-16.977,4.774-34.36,8.594-52.019,9.467
		c-9.122,0.594-18.477,0.189-27.279-2.469c-1.723-0.534-4.357-1.173-3.604-3.572c1.094-13.679,2.736-27.407,6.529-40.629
		C219.735,40.323,244.201,36.72,268.324,33.933 M133.679,98.584c0.06-2.53,2.374-4.02,3.938-5.68
		c13.788-13.467,28.667-25.95,45.144-36.015c3.306-1.976,6.685-3.859,10.258-5.313c-2.693,12.188-4.794,24.514-5.55,36.991
		c-0.484,2.635,0.284,6.012-2.29,7.729c-10.574,8.973-21.994,17.01-34.268,23.506c-6.215,3.154-12.644,6.245-19.593,7.343
		C131.532,117.582,132.488,108.058,133.679,98.584 M131.787,131.159c20.534-5.499,38.078-18.04,54.606-30.92
		c-0.067,15.176-0.586,30.338,0.009,45.513c0.481,2.713-1.762,4.607-3.288,6.496c-7.844,8.755-16.454,16.932-26.194,23.555
		c-7.078,4.579-14.991,8.874-23.678,8.567c-1.004-14.21-2.338-28.42-2.144-42.678C131.36,138.212,130.186,134.388,131.787,131.159
		 M91.197,158.84c6.525-15.06,15.361-29.031,25.321-42.03c4.312-5.043,7.99-10.672,12.983-15.1
		c-0.998,9.869-1.397,19.797-2.231,29.655c-9.731,16.733-23.779,31.232-40.798,40.617C87.183,167.325,89.449,163.159,91.197,158.84
		 M83.748,179.156c0.161-1.874,1.737-2.862,3.275-3.595c16.565-8.252,29.832-21.926,40.189-37.058
		c0.227,16.92,1.654,33.803,2.847,50.658c-5.762,12.153-11.886,24.155-18.574,35.819c-7.924,13.281-16.027,27.003-28.029,37.043
		c-2.743-6.662-4.109-13.825-5.793-20.811c0.383-6.245,0.28-12.511,0.464-18.764C77.471,207.839,79.801,193.194,83.748,179.156
		 M83.217,400.852c-1.455-12.074-3.403-24.093-4.157-36.248c-0.265-5.881-1.656-11.63-1.778-17.521
		c0.259-12.487-1.353-24.936-1.039-37.417c-0.26-13.974-0.133-27.941,0.303-41.895c0.54-4.083-0.541-8.332,0.812-12.294
		c2.765,8.292,5.099,16.735,8.048,24.97c1.036,10.272,1.646,20.617,2.089,30.94c-0.482,9.669,0.996,19.316,0.579,28.98
		c-0.188,19.914-0.455,39.966-3.522,59.689L83.217,400.852z M86.057,418.598c-0.137-4.004,0.79-7.914,1.361-11.855
		c3.817-25.286,4.544-50.925,4.221-76.439c0.193-12.329-1.102-24.656-1.647-36.968c4.06,7.223,6.722,15.136,10.9,22.308
		c1.251,2.848,3.644,5.476,3.523,8.736c-2.653,38.758,4.058,77.402,12.414,115.107C105.673,433.955,95.44,426.752,86.057,418.598
		 M89.522,434.792c-0.356-2.004-0.58-4.017-0.772-6.034c10.032,11.727,14.876,26.968,18.084,41.823
		c1.873,11.252,3.492,22.653,2.853,34.086c-0.572,0.017-1.707,0.027-2.268,0.043C100.514,481.658,94.562,458.322,89.522,434.792
		 M108.288,508.444c4.766,4.287,10.179,7.868,14.327,12.804c10.02,11.551,16.206,25.93,20.15,40.58
		c0.79,2.715,1.014,5.555,1.226,8.363c-3.474,1.624-6.973,3.194-10.356,5.021C122.109,554.248,116.112,530.904,108.288,508.444
		 M140.178,587.362c-1.857-3.006-3.513-6.136-4.825-9.41c3.565-1.409,7.036-3.077,10.472-4.775
		c19.007,14.362,35.935,33.187,42.904,56.388c-2.896,4.627-6.875,8.568-10.513,12.65
		C164.297,624.842,151.454,606.579,140.178,587.362 M215.464,684.563c-12.322-12.344-23.68-25.602-34.64-39.15
		c2.987-4.094,6.302-7.912,9.604-11.752c6.033,3.794,10.969,8.962,15.847,14.091c9.061,9.774,16.748,20.743,23.563,32.191
		c3.098,4.068-1.684,8.195-2.888,12.08C222.262,691.183,218.835,687.621,215.464,684.563 M338.509,699.066
		c-11.214,5.388-23.451,8.827-35.897,9.668c-25.073,2.442-50.09-4.424-72.76-14.724c1.451-3.174,3.084-6.25,4.615-9.386
		c17.388-3.577,35.23-4.032,52.912-4.885c16.869,0.15,33.791,1.754,50.249,5.626C337.876,689.857,339.839,694.765,338.509,699.066
		 M329.653,621.162c-0.517-3.074-2.022-6.446-0.258-9.377c5.253-11.523,16.694-18.58,28.082-23.021
		c4.692-1.861,9.481-3.596,14.473-4.462c8.012,13.329,16.368,26.536,22.934,40.657c-15.14,9.281-29.247,20.465-41.19,33.653
		c-5.2,5.61-9.271,12.104-13.553,18.413C336.982,658.342,333.476,639.714,329.653,621.162 M390.805,651.752
		c-4.054,5.754-7.911,11.659-12.478,17.018c-10.139,11.347-22.035,21.301-35.599,28.292c-0.355-4.276-1.147-8.5-1.392-12.762
		c2.668-8.163,8.126-15.024,13.481-21.595c11.93-13.717,26.455-24.918,41.717-34.68c1.441,2.735,2.799,5.532,4.252,8.268
		C397.981,641.775,394.163,646.619,390.805,651.752 M403.229,632.941c-1.349-2.665-3.784-5.268-3.151-8.475
		c5.748-25.251,18.237-49.612,38.033-66.683c2.954-3.287,6.799,0.907,8.15,3.617C433.166,585.946,418.518,609.704,403.229,632.941
		 M473.909,503.546c-5.491,14.362-12.036,28.312-19.073,41.984c-2.188,4.018-4.031,8.243-6.814,11.904
		c-1.467-1.654-3.633-2.864-4.544-4.919c-0.57-4.847,0.772-9.623,1.734-14.318c4.473-19.321,15.182-36.737,28.855-50.913
		c1.389,0.313,2.788,0.627,4.188,0.952C477.732,493.553,475.52,498.498,473.909,503.546 M481.252,480.029
		c-0.629,2.28-1.195,6.299-4.459,4.348c-2.949-13.153-0.611-26.851,1.847-39.928c3.16-16.058,7.944-31.75,13.33-47.186
		c0.366-2.087,2.626-2.581,4.182-3.546C493.273,422.777,488.111,451.638,481.252,480.029 M496.748,389.973
		c-1.256,0.35-2.499,0.709-3.73,1.09c-4.882-23.971-1.269-48.659,3.327-72.375c0.321-2.426,1.283-4.674,2.314-6.871
		c1.414,1.359,2.788,2.766,4.153,4.195C501.393,340.706,499.897,365.427,496.748,389.973 M503.076,291.671
		c-0.779,4.143-2.726,7.968-4.328,11.836c-3.778-6.482-5.718-13.815-7.713-20.99c-4.943-20.306-7.431-41.142-9.143-61.92
		c1.51-18.79,0.634-37.64-0.425-56.423c6.171,15.781,10.242,32.32,13.317,48.97c1.756,8.857,3.395,17.754,5.975,26.422
		c2.876,9.123,1.09,18.758,2.041,28.11C503.439,275.659,502.866,283.67,503.076,291.671"/>
</g>
</svg>
